<?xml version="1.0" encoding="utf-8"?>
<!-- Generator: Adobe Illustrator 27.3.1, SVG Export Plug-In . SVG Version: 6.00 Build 0)  -->
<svg version="1.1" id="Calque_1" xmlns="http://www.w3.org/2000/svg" xmlns:xlink="http://www.w3.org/1999/xlink" x="0px" y="0px"
	 viewBox="0 0 33.5 27.1" style="enable-background:new 0 0 33.5 27.1;" xml:space="preserve">
<style type="text/css">
	.st0{fill:none;stroke:#495E57;stroke-width:1.5;}
</style>
<path class="st0" d="M16.8,7.6c0,3.5-2.8,6.2-6.2,6.2s-6.2-2.7-6.2-6.2s2.8-6.2,6.2-6.2S16.8,4.2,16.8,7.6z M19.1,26.4V24
	c0-4-3.8-7.3-8.5-7.3S2.1,19.9,2.1,24v2.4 M31.4,23v-2.1c0-3.4-3.3-6.2-7.2-6.2c-2.1,0-3.8,0.8-5.1,1.9 M24.3,3.4
	c-2.4,0-4.4,2-4.4,4.4s2,4.4,4.4,4.4s4.4-2,4.4-4.4S26.7,3.4,24.3,3.4z"/>
</svg>
