<svg xmlns="http://www.w3.org/2000/svg" viewBox="0 0 33.491 27.057">
<style type="text/css">
	.occasion-paths { fill:none; stroke:#495E57; stroke-width:1.5; }
</style>
<path class="occasion-paths" d="M13.395,10.866c-0.549,3.083-3.493,5.136-6.576,4.587s-5.136-3.493-4.587-6.576l1.354-7.601l11.163,1.989
	L13.395,10.866z"/>
<line class="occasion-paths" x1="13.745" y1="8.897" x2="2.232" y2="8.877"/>
<line class="occasion-paths" x1="9.012" y1="25.132" x2="1.417" y2="23.779"/>
<line class="occasion-paths" x1="5.215" y1="24.455" x2="6.819" y2="15.453"/>
<path class="occasion-paths" d="M30.131,8.917c0.782,3.032-1.043,6.123-4.074,6.905s-6.123-1.043-6.905-4.074l-1.927-7.476l10.98-2.831
	L30.131,8.917z"/>
<line class="occasion-paths" x1="30.131" y1="8.917" x2="18.402" y2="8.842"/>
<line class="occasion-paths" x1="32.074" y1="23.714" x2="24.604" y2="25.64"/>
<line class="occasion-paths" x1="28.339" y1="24.677" x2="26.056" y2="15.822"/>
</svg>
