<?xml version="1.0" standalone="no"?>
<!DOCTYPE svg PUBLIC "-//W3C//DTD SVG 20010904//EN"
 "http://www.w3.org/TR/2001/REC-SVG-20010904/DTD/svg10.dtd">
<svg version="1.0" xmlns="http://www.w3.org/2000/svg"
 width="194.000000pt" height="194.000000pt" viewBox="0 0 194.000000 194.000000"
 preserveAspectRatio="xMidYMid meet">
<metadata>
Created by potrace 1.14, written by Peter Selinger 2001-2017
</metadata>
<g transform="translate(0.000000,194.000000) scale(0.100000,-0.100000)"
fill="#000000" stroke="none">
<path d="M950 1784 c-48 -17 -117 -50 -132 -62 -9 -7 -31 -16 -50 -19 -82 -13
-122 -58 -132 -150 -3 -28 -16 -76 -29 -105 -13 -30 -30 -72 -37 -93 -7 -21
-21 -48 -31 -59 -11 -11 -19 -26 -19 -34 0 -8 -7 -28 -15 -45 -24 -54 -32
-110 -28 -203 4 -104 7 -132 16 -159 3 -11 9 -31 11 -45 20 -93 32 -126 61
-168 19 -26 43 -64 55 -84 11 -21 67 -84 124 -140 89 -89 112 -106 167 -126
139 -50 176 -67 222 -104 74 -58 118 -47 122 30 3 49 10 73 33 119 35 66 60
126 77 183 9 30 22 69 28 85 13 34 15 42 23 103 3 24 9 54 13 65 7 22 6 194
-2 252 -3 17 -16 64 -30 105 -56 168 -150 288 -304 387 -40 26 -69 51 -66 55
3 5 7 7 10 5 9 -10 149 35 201 65 45 25 52 33 46 51 -9 29 0 23 -95 57 -80 29
-205 47 -239 34z"/>
</g>
</svg>
